# xmcd CD database file
#
# Track frame offsets:
#	150
#	13088
#	24379
#	38327
#	52447
#	66476
#	81723
#	95391
#	108032
#	122158
#	137562
#	157745
#	176483
#	190849
#	203371
#	217306
#	234509
#	275703
#	288641
#	301936
#	314829
#	330737
#
# Disc length: 4562 seconds
#
# Revision: 1
# Processed by: cddbd v1.5.2PL0 Copyright (c) Steve Scherf et al.
# Submitted via: CDex 1.70beta2
#
DISCID=4611d016
DTITLE=Wardell Gray - D3 - The Wardell Gray Story - Twisted - Proper
DYEAR=1949
DGENRE=Swing
TTITLE0=Five Stars (with Al Haig and Jimmy Raney)
TTITLE1=Sugar Hill Bop (with Al Haig and Jimmy Raney)
TTITLE2=In a Pinch (with Al Haig and Jimmy Raney)
TTITLE3=It's the Talk of the Town (with Al Haig and Jimmy Raney)
TTITLE4=Bedlam (Benny Goodman Septet)
TTITLE5=In the Land of the Oo-Bla-Dee (Benny Goodman Septet)
TTITLE6=Blue Lou (Benny Goodman Septet)
TTITLE7=Egg Head (Benny Goodman and His Orchestra)
TTITLE8=Twisted (with Al Haig)
TTITLE9=Southside (with Al Haig)
TTITLE10=Easy Living (with Al Haig)
TTITLE11=Sweet Lorraine (with Al Haig)
TTITLE12=A Sinner Kissed an Angel
TTITLE13=Blue Gray
TTITLE14=Grayhound
TTITLE15=Treadin' with Treadwell
TTITLE16=Scrapple from the Apple (with Clark Terry)
TTITLE17=Song of the Islands (with Clark Terry, Buddy DeFranco and Freddie Green) (Count Basie and His Septet)
TTITLE18=One O'Clock Jump (with Clark Terry, Buddy DeFranco and Freddie Green) (Count Basie and His Septet)
TTITLE19=Tootsie (with Clark Terry, Buddy DeFranco and Freddie Green) (Count Basie and His Septet)
TTITLE20=Nails (with Clark Terry, Lucky Thompson and Freddie Green) (Count Basie and His Orchestra)
TTITLE21=Little Pony (with Clark Terry, Lucky Thompson and Freddie Green) (Count Basie and His Orchestra)
EXTD=YEAR: 1949
EXTT0=
EXTT1=
EXTT2=
EXTT3=
EXTT4=
EXTT5=
EXTT6=
EXTT7=
EXTT8=
EXTT9=
EXTT10=
EXTT11=
EXTT12=
EXTT13=
EXTT14=
EXTT15=
EXTT16=
EXTT17=
EXTT18=
EXTT19=
EXTT20=
EXTT21=
PLAYORDER=
